<?xml version="1.0" encoding="UTF-8"?>
<svg xmlns="http://www.w3.org/2000/svg" xmlns:xlink="http://www.w3.org/1999/xlink" viewBox="0 0 161.35 165.42">
  <defs>
    <style>
      .cls-1 {
        opacity: .4;
      }

      .cls-1, .cls-2, .cls-3, .cls-4, .cls-5 {
        mix-blend-mode: multiply;
      }

      .cls-6 {
        stroke: #fff;
        stroke-width: .39px;
      }

      .cls-6, .cls-7, .cls-8, .cls-9, .cls-10 {
        fill: none;
        stroke-miterlimit: 10;
      }

      .cls-7 {
        stroke-width: .84px;
      }

      .cls-7, .cls-9 {
        stroke: #000;
      }

      .cls-11 {
        fill: url(#linear-gradient);
      }

      .cls-11, .cls-12, .cls-13, .cls-2, .cls-14, .cls-3, .cls-15, .cls-16, .cls-17, .cls-18, .cls-19, .cls-20, .cls-4, .cls-21, .cls-22, .cls-23, .cls-24, .cls-5, .cls-25 {
        stroke-width: 0px;
      }

      .cls-12 {
        fill: url(#linear-gradient-6);
      }

      .cls-13 {
        fill: #747e96;
      }

      .cls-2 {
        fill: url(#linear-gradient-2);
      }

      .cls-2, .cls-4, .cls-5 {
        opacity: .3;
      }

      .cls-26 {
        isolation: isolate;
      }

      .cls-3 {
        fill: url(#linear-gradient-4);
        opacity: .5;
      }

      .cls-15 {
        fill: #71b366;
      }

      .cls-8 {
        stroke: #ff9c91;
        stroke-width: .47px;
      }

      .cls-16 {
        fill: url(#linear-gradient-5);
      }

      .cls-17 {
        fill: #991204;
      }

      .cls-9 {
        stroke-width: .91px;
      }

      .cls-18 {
        fill: #ffc800;
      }

      .cls-19 {
        fill: #fff;
      }

      .cls-10 {
        stroke: #2e5e26;
        stroke-width: .66px;
      }

      .cls-20 {
        fill: url(#linear-gradient-7);
      }

      .cls-4 {
        fill: url(#linear-gradient-9);
      }

      .cls-21 {
        fill: url(#linear-gradient-3);
      }

      .cls-22 {
        fill: #ff9c91;
      }

      .cls-23 {
        fill: #bf8a00;
      }

      .cls-24 {
        fill: #3465d9;
      }

      .cls-5 {
        fill: url(#linear-gradient-8);
      }

      .cls-25 {
        fill: #db1905;
      }
    </style>
    <linearGradient id="linear-gradient" x1="84.97" y1="148.05" x2="84.97" y2="-7.4" gradientUnits="userSpaceOnUse">
      <stop offset=".05" stop-color="#3465d9" stop-opacity=".6"/>
      <stop offset="1" stop-color="#3465d9" stop-opacity="0"/>
    </linearGradient>
    <linearGradient id="linear-gradient-2" x1="101.2" y1="10.29" x2="101.2" y2="93.2" gradientTransform="translate(113.33 -72.16) rotate(78.01)" gradientUnits="userSpaceOnUse">
      <stop offset=".13" stop-color="#000"/>
      <stop offset="1" stop-color="#fff"/>
    </linearGradient>
    <linearGradient id="linear-gradient-3" x1="36.75" y1="91.98" x2="111.78" y2="91.98" gradientTransform="translate(-43.92 140.03) rotate(-90)" xlink:href="#linear-gradient-2"/>
    <linearGradient id="linear-gradient-4" x1="82.09" y1="83.42" x2="82.09" y2="119.11" gradientTransform="matrix(1,0,0,1,0,0)" xlink:href="#linear-gradient-2"/>
    <linearGradient id="linear-gradient-5" x1="64.87" y1="150.57" x2="64.87" y2="136.41" gradientUnits="userSpaceOnUse">
      <stop offset=".19" stop-color="#ff9c91"/>
      <stop offset="1" stop-color="#f27c6f"/>
    </linearGradient>
    <linearGradient id="linear-gradient-6" x1="29.9" x2="29.9" xlink:href="#linear-gradient-5"/>
    <linearGradient id="linear-gradient-7" x1="44.2" y1="36.63" x2="44.12" y2="31.71" xlink:href="#linear-gradient-5"/>
    <linearGradient id="linear-gradient-8" x1="80.37" y1="88.8" x2="80.37" y2="107.44" gradientTransform="matrix(1,0,0,1,0,0)" xlink:href="#linear-gradient-2"/>
    <linearGradient id="linear-gradient-9" x1="46.25" y1="60.77" x2="46.25" y2="85.46" gradientTransform="matrix(1,0,0,1,0,0)" xlink:href="#linear-gradient-2"/>
  </defs>
  <g class="cls-26">
    <g id="Layer_2" data-name="Layer 2">
      <g id="OBJECTS">
        <g>
          <path class="cls-11" d="m37.51,9.32h94.92c7.97,0,14.45,6.47,14.45,14.45v141.24H23.07V23.76c0-7.97,6.47-14.45,14.45-14.45Z"/>
          <g>
            <path class="cls-15" d="m156.34,165s.3-22.19-4.15-22.19-3.31,7.71-9.66,2.67c-6.35-5.04-14.3-46.96-28.26-47.94-13.96-.98-23.03,43.24-34.08,47.05-8.19,2.82-37.74,1.69-47.79,20.41h123.95Z"/>
            <path class="cls-10" d="m114.27,97.54s7.39,28.59,0,67.46"/>
            <path class="cls-10" d="m124.92,106.68s-.55,7.25-7.37,18.88"/>
            <path class="cls-10" d="m98.12,115.16s5.78,14.02,18.95,28.41"/>
            <path class="cls-10" d="m133.99,127.04s-4.74,21.73-18.49,30.75"/>
          </g>
          <g>
            <circle class="cls-2" cx="101.2" cy="33.88" r="31.67" transform="translate(47.05 125.84) rotate(-78.01)"/>
            <circle class="cls-24" cx="98.99" cy="31.67" r="31.67" transform="translate(45.14 120.56) rotate(-76.53)"/>
            <path class="cls-15" d="m117.51,5.99c-2.6-.2-6.39-.09-9.87,1.54-6.06,2.83-1.08,5.39.94,8.49s2.83,9.65,1.08,11.49c-1.75,1.84-4.58,2.37-4.18,5.27.4,2.9-1.37,5.86-.75,6.81.62.94,5.36-4.78,12.06-6.81,6.49-1.96,10.95-.35,13.27,4.99.38-1.97.59-4.01.59-6.09,0-10.57-5.19-19.93-13.15-25.68Z"/>
            <path class="cls-15" d="m95.15,42.44s.2,4.95,5.05,6.97c4.85,2.02,12.63,4.14,15.15,2.93s3.33-3.33,5.45-4.14,1.72-2.32-.61-2.32-3.94,2.38-8.18,1.69c-4.24-.68-13.03-5.13-16.87-5.13Z"/>
            <path class="cls-15" d="m90.7,19.92c-3.84-1.82-3.84-7.37-7.17-9.39-3.33-2.02-5.75-1.21-9.57,1.76-4.16,5.36-6.64,12.08-6.64,19.39,0,8.76,3.56,16.69,9.3,22.42-3.56-6.23,5.59-10.43,9.01-12.25,3.42-1.82-.69-6.47,0-9.7.69-3.23,9.71-1.72,11.33-3.84,1.62-2.12-2.42-6.57-6.26-8.38Z"/>
          </g>
          <g class="cls-1">
            <rect class="cls-21" x="-17.1" y="55.33" width="130.31" height="73.3" rx="5.5" ry="5.5" transform="translate(140.03 43.92) rotate(90)"/>
          </g>
          <g>
            <path class="cls-19" d="m99.25,87.88l-27.69,17.54,1.51,2.38,30.32-19.2-1.41-.79c-.85-.48-1.9-.45-2.72.07Z"/>
            <path class="cls-19" d="m103.49,90.26l-27.95,17.71,1.51,2.38,30.58-19.37-1.41-.79c-.85-.48-1.9-.45-2.72.07Z"/>
          </g>
          <g>
            <rect class="cls-18" x="-19.71" y="55.33" width="130.31" height="73.3" rx="5.5" ry="5.5" transform="translate(137.42 46.54) rotate(90)"/>
            <path class="cls-24" d="m76.59,26.82H14.29c-3.04,0-5.5,2.46-5.5,5.5v6.4h73.3v-6.4c0-3.04-2.46-5.5-5.5-5.5Z"/>
            <g>
              <path class="cls-19" d="m61.7,32.98c0,.71-.58,1.29-1.29,1.29s-1.29-.58-1.29-1.29.58-1.29,1.29-1.29,1.29.58,1.29,1.29Z"/>
              <path class="cls-19" d="m68.58,32.98c0,.71-.58,1.29-1.29,1.29s-1.29-.58-1.29-1.29.58-1.29,1.29-1.29,1.29.58,1.29,1.29Z"/>
              <path class="cls-19" d="m75.45,32.98c0,.71-.58,1.29-1.29,1.29s-1.29-.58-1.29-1.29.58-1.29,1.29-1.29,1.29.58,1.29,1.29Z"/>
            </g>
          </g>
          <rect class="cls-3" x="70.88" y="84.17" width="22.42" height="27.76"/>
          <g>
            <rect class="cls-23" x="88.3" y="125.19" width="34.51" height="39.81"/>
            <rect class="cls-18" x="88.3" y="125.19" width="23.25" height="39.81"/>
            <line class="cls-6" x1="88.3" y1="130.13" x2="122.81" y2="130.13"/>
            <rect class="cls-25" x="97.06" y="125.19" width="5.72" height="39.81"/>
            <rect class="cls-17" x="115.38" y="125.19" width="3.61" height="39.81"/>
          </g>
          <path class="cls-19" d="m23.07,72.46c-4.32,1.06-5.18,1.92-6.24,6.24-1.06-4.32-1.92-5.18-6.24-6.24,4.32-1.06,5.18-1.92,6.24-6.24,1.06,4.32,1.92,5.18,6.24,6.24Z"/>
          <path class="cls-19" d="m140.54,103.84c-2.75.67-3.3,1.22-3.97,3.97-.67-2.75-1.22-3.3-3.97-3.97,2.75-.67,3.3-1.22,3.97-3.97.67,2.75,1.22,3.3,3.97,3.97Z"/>
          <path class="cls-19" d="m136.91,56.86c-1.92.47-2.31.85-2.78,2.78-.47-1.92-.85-2.31-2.78-2.78,1.92-.47,2.31-.85,2.78-2.78.47,1.92.85,2.31,2.78,2.78Z"/>
          <path class="cls-19" d="m21.34,87.16c-1.76.43-2.1.78-2.53,2.53-.43-1.76-.78-2.1-2.53-2.53,1.76-.43,2.1-.78,2.53-2.53.43,1.76.78,2.1,2.53,2.53Z"/>
          <line class="cls-7" y1="165" x2="161.35" y2="165"/>
          <g>
            <path class="cls-22" d="m26.86,132.96l-3.93,26.18c-.21,1.42-1.11,2.64-2.4,3.26l-5.35,2.6,11.68-.55,7.67-31.49h-7.67Z"/>
            <path class="cls-22" d="m60.7,132.96l5.74,26.18c-.21,1.42-1.11,2.64-2.4,3.26l-5.35,2.6,11.68-.55-2-31.49h-7.67Z"/>
            <path class="cls-14" d="m64.04,162.4l-5.35,2.6h12.24l-.83-4.8h-3.97c-.41.95-1.14,1.73-2.09,2.19Z"/>
            <path class="cls-14" d="m27.52,165l.37-4.8h-5.27c-.41.95-1.14,1.73-2.09,2.19l-5.35,2.6h12.34Z"/>
            <g>
              <polygon class="cls-16" points="68.36 132.96 60.7 132.96 63.02 143.57 69.04 143.57 68.36 132.96"/>
              <polygon class="cls-12" points="25.27 143.57 31.94 143.57 34.53 132.96 26.86 132.96 25.27 143.57"/>
            </g>
            <path class="cls-14" d="m43.86,12.86c8.94.12,7.47,7.96,9.43,12.25,1.96,4.29,9.63,9.92,5.3,15.07-4.32,5.14-10.33,2.62-15.47,2.41s-13.35-1.92-12.86-6.33c.49-4.41,4.9-7.35,4.9-12.13s-.61-11.39,8.7-11.27Z"/>
            <path class="cls-20" d="m41.34,31.06v5.92c0,.27,1.26.49,2.82.49s2.82-.22,2.82-.49v-5.92h-5.65Z"/>
            <path class="cls-25" d="m44.43,36.39c-6.56-.37-13.01,1.78-13.01,1.78,3.28,5.45,5.23,21.47,5.23,21.47h15.57s1.95-16.02,5.23-21.47c0,0-6.45-2.15-13.01-1.78Z"/>
            <path class="cls-25" d="m36.65,59.64c-12.86,15.97-12.78,75.8-12.78,75.8h52.52s-3.74-8.07-8.79-22.8c-11.18-32.58-5.49-38.18-15.39-52.99h-15.57Z"/>
            <path class="cls-8" d="m50.14,59.64s5.93,9.44,6.4,19.3c1.22,25.71,14.31,51.9,17.73,56.49"/>
            <rect class="cls-19" x="40.74" y="41.67" width="7.31" height="13.01" rx=".96" ry=".96"/>
            <path class="cls-22" d="m30.78,38.76l-9.03,21.42c-.72,1.7,1.11,3.36,2.73,2.48l14.78-8.04c.8-.37,1.47-.96,1.94-1.7l1.79-2.84.62-.16c.45-.12.68-.61.5-1.03l-.62-1.4-.78.04c-.94.05-1.79.55-2.3,1.34l-2.31,3.63-10.35,4.16,6.22-11.59c.85-1.59.7-3.53-.39-4.97l-1.17-1.54c-.45-.59-1.36-.47-1.65.21Z"/>
            <path class="cls-9" d="m86.47,84.48c-.48-6.28-3.03-11.09-6.1-11.09s-5.62,4.8-6.1,11.09"/>
            <rect class="cls-23" x="69.16" y="83.07" width="22.42" height="27.76"/>
            <rect class="cls-5" x="69.16" y="96.95" width="22.42" height="13.88"/>
            <path class="cls-22" d="m38.18,23.09s1.49-.96,2.37-3.2c1.64.96,6.34,2.7,9.58,2.77,0,0-.29,10.13-5.98,10.13s-5.98-9.7-5.98-9.7Z"/>
            <path class="cls-22" d="m57.45,38.17s-4.29.08-4.23,4.03c.04,2.73,3.21,10.84,5.16,15.61.96,2.33,2.67,4.26,4.86,5.5l13.51,7.63s-.24,4.25,1.12,4.54c1.36.29,4.6,0,4.6,0,0,0,.83-2.65-3.24-6.25l-14.98-11.7-6.8-19.36Z"/>
            <path class="cls-4" d="m52.22,59.64h-15.57c-.97,1.21-1.87,2.68-2.7,4.35,4.66,3.6,13.44,9.16,24.6,10.62-1.04-4.99-2.55-9.31-6.33-14.96Z"/>
            <circle class="cls-13" cx="42.15" cy="43.09" r=".52"/>
            <path class="cls-13" d="m44.47,43.31h-1.1c-.12,0-.22-.1-.22-.22h0c0-.12.1-.22.22-.22h1.1c.12,0,.22.1.22.22h0c0,.12-.1.22-.22.22Z"/>
          </g>
          <g>
            <path class="cls-19" d="m142.1,68.18c-.44-.33-1.04-.36-1.51-.08l-.42.25c-.7.42-1.54.48-2.31.2-1.35-.5-4-.78-7.87,1.85,0,0-.01,0-.02.01-1.7,1.16-3.82,1.51-5.8.93l-15.48-4.51-2.53,1.84,12.65,7.75c.78.47.83,1.58.1,2.13-4.99,3.77-9.57,7.29-9.57,7.29l-4.88-1.42c-.47-.14-.97-.03-1.34.29l-1.13.98,6.27,3.36c.91.49,2.01.45,2.89-.11l10.74-6.8c.78-.49,1.8-.04,1.96.87l2.52,14.51,2.64-1.67,1.51-16.03c.2-2.11,1.36-4.01,3.15-5.14l8.38-5.31c.43-.27.45-.88.05-1.19Z"/>
            <g>
              <path class="cls-24" d="m135.41,69.98c-.18-.3-.09-.68.21-.86s.68-.09.86.21c.18.3.09.68-.21.86-.3.18-.68.09-.86-.21Z"/>
              <path class="cls-24" d="m132.7,71.64c-.18-.3-.09-.68.21-.86.3-.18.68-.09.86.21.18.3.09.68-.21.86-.3.18-.68.09-.86-.21Z"/>
              <path class="cls-24" d="m129.98,73.31c-.18-.3-.09-.68.21-.86.3-.18.68-.09.86.21.18.3.09.68-.21.86-.3.18-.68.09-.86-.21Z"/>
              <path class="cls-24" d="m127.26,74.97c-.18-.3-.09-.68.21-.86.3-.18.68-.09.86.21.18.3.09.68-.21.86-.3.18-.68.09-.86-.21Z"/>
              <path class="cls-24" d="m124.55,76.63c-.18-.3-.09-.68.21-.86s.68-.09.86.21c.18.3.09.68-.21.86-.3.18-.68.09-.86-.21Z"/>
            </g>
            <path class="cls-24" d="m123.85,83.02l2.52,14.51,2.64-1.67,1.51-16.03c.2-2.11,1.36-4.01,3.15-5.14l.7-.45h0l-12.49,7.91c.78-.49,1.8-.04,1.96.87Z"/>
            <path class="cls-24" d="m118.92,78.56c-.13.1,10.62-7.87,10.62-7.87h0c-1.62.94-3.55,1.2-5.36.67l-15.48-4.51-2.53,1.84,12.65,7.75c.78.48.83,1.58.1,2.13Z"/>
          </g>
        </g>
      </g>
    </g>
  </g>
</svg>