<?xml version="1.0" encoding="UTF-8"?>
<svg xmlns="http://www.w3.org/2000/svg" xmlns:xlink="http://www.w3.org/1999/xlink" viewBox="0 0 164.74 144.39">
  <defs>
    <style>
      .cls-1 {
        fill: url(#linear-gradient-5);
      }

      .cls-1, .cls-2, .cls-3, .cls-4, .cls-5, .cls-6, .cls-7, .cls-8, .cls-9, .cls-10, .cls-11, .cls-12, .cls-13, .cls-14, .cls-15, .cls-16, .cls-17, .cls-18, .cls-19, .cls-20, .cls-21 {
        stroke-width: 0px;
      }

      .cls-1, .cls-3, .cls-4, .cls-5, .cls-6, .cls-9, .cls-11, .cls-16 {
        mix-blend-mode: multiply;
      }

      .cls-1, .cls-5, .cls-9, .cls-11, .cls-22 {
        opacity: .3;
      }

      .cls-2 {
        fill: url(#linear-gradient);
      }

      .cls-3 {
        fill: url(#linear-gradient-7);
      }

      .cls-3, .cls-4, .cls-6, .cls-16 {
        opacity: .2;
      }

      .cls-4 {
        fill: url(#linear-gradient-11);
      }

      .cls-5 {
        fill: url(#linear-gradient-2);
      }

      .cls-6 {
        fill: url(#linear-gradient-8);
      }

      .cls-23 {
        isolation: isolate;
      }

      .cls-8 {
        fill: #71b366;
      }

      .cls-9 {
        fill: url(#linear-gradient-6);
      }

      .cls-24 {
        stroke: #3465d9;
      }

      .cls-24, .cls-25 {
        stroke-width: .66px;
      }

      .cls-24, .cls-25, .cls-22 {
        fill: none;
        stroke-miterlimit: 10;
      }

      .cls-10 {
        fill: #ffc800;
      }

      .cls-11 {
        fill: url(#linear-gradient-3);
      }

      .cls-12 {
        fill: #fff;
      }

      .cls-25 {
        stroke: #2e5e26;
      }

      .cls-13 {
        fill: url(#linear-gradient-9);
      }

      .cls-14 {
        fill: #ff9c91;
      }

      .cls-15 {
        fill: #bf8a00;
      }

      .cls-16 {
        fill: url(#linear-gradient-10);
      }

      .cls-17 {
        fill: #3465d9;
      }

      .cls-18 {
        fill: #ababab;
      }

      .cls-19 {
        fill: url(#linear-gradient-4);
      }

      .cls-22 {
        stroke: #000;
        stroke-width: .71px;
      }

      .cls-20 {
        fill: #db1905;
      }

      .cls-21 {
        fill: #203e87;
      }
    </style>
    <linearGradient id="linear-gradient" x1="83.12" y1="110.77" x2="83.12" y2="-11.65" gradientUnits="userSpaceOnUse">
      <stop offset=".05" stop-color="#3465d9" stop-opacity=".6"/>
      <stop offset="1" stop-color="#3465d9" stop-opacity="0"/>
    </linearGradient>
    <linearGradient id="linear-gradient-2" x1="101.8" y1="53.37" x2="101.8" y2="106.23" gradientUnits="userSpaceOnUse">
      <stop offset=".13" stop-color="#000"/>
      <stop offset="1" stop-color="#fff"/>
    </linearGradient>
    <linearGradient id="linear-gradient-3" y1="96.15" y2="138.42" xlink:href="#linear-gradient-2"/>
    <linearGradient id="linear-gradient-4" x1="99.51" y1="96.62" x2="99.51" y2="134.99" gradientUnits="userSpaceOnUse">
      <stop offset=".41" stop-color="#fff"/>
      <stop offset=".48" stop-color="#fff" stop-opacity=".99"/>
      <stop offset=".55" stop-color="#fff" stop-opacity=".94"/>
      <stop offset=".62" stop-color="#fff" stop-opacity=".87"/>
      <stop offset=".69" stop-color="#fff" stop-opacity=".76"/>
      <stop offset=".76" stop-color="#fff" stop-opacity=".63"/>
      <stop offset=".82" stop-color="#fff" stop-opacity=".46"/>
      <stop offset=".89" stop-color="#fff" stop-opacity=".26"/>
      <stop offset=".95" stop-color="#fff" stop-opacity=".04"/>
      <stop offset=".96" stop-color="#fff" stop-opacity="0"/>
    </linearGradient>
    <linearGradient id="linear-gradient-5" x1="144.1" y1="42.99" x2="144.1" y2="102.82" xlink:href="#linear-gradient-2"/>
    <linearGradient id="linear-gradient-6" y1="9.81" y2="65.02" xlink:href="#linear-gradient-2"/>
    <linearGradient id="linear-gradient-7" x1="54.03" y1="28.58" x2="73.96" y2="28.58" xlink:href="#linear-gradient-2"/>
    <linearGradient id="linear-gradient-8" x1="51.1" y1="48.18" x2="51.1" y2="81.86" xlink:href="#linear-gradient-2"/>
    <linearGradient id="linear-gradient-9" x1="44.73" y1="20.6" x2="48.43" y2="12.03" gradientUnits="userSpaceOnUse">
      <stop offset=".19" stop-color="#ff9c91"/>
      <stop offset="1" stop-color="#f27c6f"/>
    </linearGradient>
    <linearGradient id="linear-gradient-10" x1="35.61" y1="27.3" x2="36.2" y2="44.05" xlink:href="#linear-gradient-2"/>
    <linearGradient id="linear-gradient-11" x1="55.54" y1="118.52" x2="68.24" y2="118.52" xlink:href="#linear-gradient-2"/>
  </defs>
  <g class="cls-23">
    <g id="Layer_2" data-name="Layer 2">
      <g id="OBJECTS">
        <g>
          <path class="cls-2" d="m27.39,9.02h111.47c7.97,0,14.44,6.47,14.44,14.44v120.93H12.94V23.46c0-7.97,6.47-14.44,14.44-14.44Z"/>
          <g>
            <path class="cls-8" d="m1.46,143.68s-4.72-32.24,2.83-32.55c7.55-.31,4.72,7.86,14.47,7.23,9.75-.63,2.28-39.63,22.37-41.2,20.09-1.57,19.35,34.91,32.3,40.89s18.68,0,26.63,9.44c9.28,11.01,17.14-2.83,29.41,4.72,12.27,7.55,14.63,11.48,14.63,11.48H1.46Z"/>
            <path class="cls-25" d="m92.94,122.31s1.45,10.84.86,21.37"/>
            <path class="cls-25" d="m41.12,77.16s2.71,45.73,8.7,66.52"/>
            <path class="cls-25" d="m5.1,111.13s1.73,18.75,9.28,32.55"/>
            <line class="cls-25" x1="8.64" y1="116.2" x2="7.09" y2="123.04"/>
            <path class="cls-25" d="m1.8,124.84s2.02,4.13,8.44,9.38"/>
            <path class="cls-25" d="m49.83,82.15s-1.58,10.56-6.93,17.07"/>
            <path class="cls-25" d="m28.69,94.22s3.03,10.39,16.08,21.98"/>
            <path class="cls-25" d="m61.13,110.4s-5.11,15.28-13.52,23.83"/>
          </g>
          <rect class="cls-10" x="43.54" y="28.5" width="130.31" height="73.3" rx="5.5" ry="5.5" transform="translate(173.85 -43.54) rotate(90)"/>
          <rect class="cls-5" x="84.26" y="51.85" width="35.07" height="38.53" rx="4.98" ry="4.98"/>
          <path class="cls-11" d="m114.35,96.94h-25.1c-2.75,0-4.98,2.23-4.98,4.98v28.38h35.07v-28.38c0-2.75-2.23-4.98-4.98-4.98Z"/>
          <path class="cls-17" d="m139.85,0h-62.3c-3.04,0-5.5,2.46-5.5,5.5v6.4h73.3v-6.4c0-3.04-2.46-5.5-5.5-5.5Z"/>
          <g>
            <path class="cls-12" d="m124.96,6.15c0,.71-.58,1.29-1.29,1.29s-1.29-.58-1.29-1.29.58-1.29,1.29-1.29,1.29.58,1.29,1.29Z"/>
            <path class="cls-12" d="m131.84,6.15c0,.71-.58,1.29-1.29,1.29s-1.29-.58-1.29-1.29.58-1.29,1.29-1.29,1.29.58,1.29,1.29Z"/>
            <path class="cls-12" d="m138.71,6.15c0,.71-.58,1.29-1.29,1.29s-1.29-.58-1.29-1.29.58-1.29,1.29-1.29,1.29.58,1.29,1.29Z"/>
          </g>
          <rect class="cls-12" x="81.98" y="49.13" width="35.07" height="38.53" rx="4.98" ry="4.98"/>
          <rect class="cls-19" x="81.98" y="94.22" width="35.07" height="38.53" rx="4.98" ry="4.98"/>
          <path class="cls-17" d="m108.38,61.63l-.43-3.54h-16.88l-.43,3.54-3.79,17.06h8.8c0-4.25,2.86-9.36,3.86-9.36s3.86,5.11,3.86,9.36h8.8l-3.79-17.06Z"/>
          <line class="cls-22" x1="140.09" y1="16.94" x2="140.09" y2="125.29"/>
          <path class="cls-17" d="m140.09,103.27h0c-1.15,0-2.08-.93-2.08-2.08v-13.6c0-1.15.93-2.08,2.08-2.08h0c1.15,0,2.08.93,2.08,2.08v13.6c0,1.15-.93,2.08-2.08,2.08Z"/>
          <g>
            <rect class="cls-1" x="124.87" y="44.1" width="38.45" height="23.12" rx="2.72" ry="2.72"/>
            <rect class="cls-17" x="126.29" y="42.56" width="38.45" height="23.12" rx="2.72" ry="2.72"/>
            <g>
              <path class="cls-12" d="m138.92,55.68c0,1.4-1.14,2.32-2.56,2.32h-3.33v-7.92h3.1c1.38,0,2.5.89,2.5,2.26,0,.66-.26,1.18-.69,1.55.59.37.97.98.97,1.79Zm-4.07-3.9v1.4h1.29c.41,0,.69-.29.69-.7s-.27-.7-.69-.7h-1.29Zm2.26,3.77c0-.44-.29-.76-.75-.76h-1.52v1.52h1.52c.45,0,.75-.32.75-.76Z"/>
              <path class="cls-12" d="m141.98,55.45v-5.36h1.81v5.21c0,.6.28,1.11,1.24,1.11s1.24-.51,1.24-1.11v-5.21h1.81v5.36c0,1.7-1.31,2.72-3.06,2.72s-3.06-1.02-3.06-2.72Z"/>
              <path class="cls-12" d="m155.33,54.96v3.04h-1.81v-3.04l-2.66-4.88h2.06l1.51,3.06,1.5-3.06h2.06l-2.66,4.88Z"/>
            </g>
          </g>
          <rect class="cls-9" x="84.26" y="6.75" width="35.07" height="38.53" rx="4.98" ry="4.98"/>
          <rect class="cls-12" x="81.98" y="4.04" width="35.07" height="38.53" rx="4.98" ry="4.98"/>
          <path class="cls-20" d="m108.54,13.17c-.8-.81-1.9-1.27-3.04-1.27h-3.04c-.1,1.13-1.38,2.02-2.95,2.02s-2.85-.89-2.95-2.02h-3.04c-1.14,0-2.24.46-3.04,1.27l-5.12,5.21,3.84,3.32,2.49-2.28v12.47c0,1.27,1.03,2.31,2.31,2.31h11.04c1.27,0,2.31-1.03,2.31-2.31v-12.47l2.49,2.28,3.84-3.32-5.12-5.21Z"/>
          <g>
            <circle class="cls-18" cx="91.76" cy="117.05" r="1.11"/>
            <circle class="cls-18" cx="96.93" cy="117.05" r="1.11"/>
            <circle class="cls-18" cx="102.1" cy="117.05" r="1.11"/>
            <path class="cls-18" d="m108.38,117.05c0,.61-.5,1.11-1.11,1.11s-1.11-.5-1.11-1.11.5-1.11,1.11-1.11,1.11.49,1.11,1.11Z"/>
          </g>
          <path class="cls-12" d="m29.95,65.15c-4.32,1.06-5.18,1.92-6.24,6.24-1.06-4.32-1.92-5.18-6.24-6.24,4.32-1.06,5.18-1.92,6.24-6.24,1.06,4.32,1.92,5.18,6.24,6.24Z"/>
          <path class="cls-12" d="m23.74,82.15c-2.16.53-2.59.96-3.12,3.12-.53-2.16-.96-2.59-3.12-3.12,2.16-.53,2.59-.96,3.12-3.12.53,2.16.96,2.59,3.12,3.12Z"/>
          <g>
            <path class="cls-14" d="m89.84,21.49s2.08-4.29,10.77-5.9l-2.81,1.95c-.39.27-.51.79-.27,1.19.39.67.78,1.79.1,3.03-1.1,2.01-5.04,1.46-5.04,1.46l-1.92,1.53-.83-3.26Z"/>
            <path class="cls-15" d="m57.22,22.36l16.74,10.07,16.12-11.74,2.52,3.24-13.15,13.05c-2.44,2.42-6.18,2.98-9.22,1.36l-16.2-8.59,3.19-7.39Z"/>
            <polygon class="cls-3" points="73.96 32.42 57.22 22.36 54.03 29.75 63.58 34.81 73.96 32.42"/>
            <path class="cls-17" d="m35.98,136.92l-2.41,4.42c-.58,1.06.19,2.35,1.39,2.35h14.86c.72,0,.95-.98.3-1.29-1.5-.73-3.65-1.57-6.2-1.99-.42-.07-.81-.27-1.08-.6l-2.48-2.88h-4.38Z"/>
            <path class="cls-17" d="m62.28,136.92l-2.41,4.42c-.58,1.06.19,2.35,1.39,2.35h14.86c.72,0,.95-.98.3-1.29-1.5-.73-3.65-1.57-6.2-1.99-.42-.07-.81-.27-1.08-.6l-2.48-2.88h-4.38Z"/>
            <path class="cls-21" d="m68.24,138.18l-5.03-84.92h-24.64l.43,42.39c.03,2.63-.4,5.24-1.28,7.71-.62,1.76-1.28,4.01-1.51,6.19-.44,4.21,1.73,8.96.16,12.11s-.63,7.08-.16,9.75c.47,2.67-1.57,6.76-1.57,6.76h7.55l9.68-56.8,3.42,14.27c.63,2.63.8,5.24.49,7.71-.22,1.76-.36,4.01-.09,6.19.53,4.21,3.79,8.96,2.94,12.11-.85,3.15,1,7.08,2.08,9.75,1.09,2.67-.02,6.76-.02,6.76h7.55Z"/>
            <polygon class="cls-6" points="63.22 53.26 56.66 53.26 45.13 53.26 38.58 53.26 38.72 67.17 63.61 59.96 63.22 53.26"/>
            <g>
              <path class="cls-7" d="m50.29,7.07c2.31.54,4.29-1.12,4.29-3.24s-2.37-4.91-8.34-3.39c0,0-7.95-2.61-9.08,5.44,0,0-2.93,2.97-.57,6.93,2.37,3.96,4.91,4.13,4.91,4.13,0,0,8.11-5.13,8.78-9.87Z"/>
              <path class="cls-14" d="m51.5,14.63l-1.56-9.78c-2.33,2.65-5.35,3.34-5.35,3.34.04,1.09-.05,2.08-.22,2.98,0,0-.77-1.2-1.51-.87-1.1.48-1.02,3.32,0,3.39.29.02.56-.03.8-.11-.91,2.2-2.14,3.36-2.14,3.36l.42,4.93h7.05l-.59-4.02c-.08-.53.34-1.01.88-1.01h.36c1.17,0,2.06-1.04,1.87-2.2Z"/>
              <path class="cls-13" d="m48.99,21.87l-.59-4.02c-.08-.53.34-1.01.88-1.01h.36s.08-.01.13-.01c-3.36-.84-6.1-3.24-6.1-3.24-.91,2.2-2.14,3.36-2.14,3.36l.42,4.93h7.05Z"/>
            </g>
            <path class="cls-15" d="m64.6,51.41c-.94-3.02-3.36-7.08-4.49-14.56,0,0-1.06-8.44-1.59-12.65-.17-1.33-1.3-2.33-2.64-2.33h-21.55l-1.07,2.17,3.63,28.89c.2,1.58,1.55,2.77,3.14,2.77h22.45c2.01,0,3-1.44,2.12-4.29Z"/>
            <polygon class="cls-16" points="36.07 46.38 37.35 28.58 34.02 30.06 36.07 46.38"/>
            <path class="cls-14" d="m37.01,55.32l1.28,1.38h.71l5.61,3.43c.32.2.45.6.31.95l-.43,1.02c-.3.71-1.11,1.05-1.83.77l-1.11-.44-1.28-.09c-.98-.07-1.86-.66-2.28-1.55l-.29-.61-1.49-1.45.8-3.43Z"/>
            <line class="cls-24" x1="54.37" y1="66.23" x2="42.19" y2="138.18"/>
            <path class="cls-4" d="m55.78,103.36c-.22,1.76-.36,4.01-.09,6.19.53,4.21,3.79,8.96,2.94,12.11-.85,3.15,1,7.08,2.08,9.75,1.09,2.67-.02,6.76-.02,6.76h7.55l-1.46-24.67-10.97-14.64c.15,1.53.15,3.03-.03,4.49Z"/>
            <path class="cls-15" d="m32.76,22.57c.64-.91,1.98-.95,2.65-.07,1.51,2,3.29,5.63.57,9.61-4.11,6-8.56,12.12-8.56,12.12l10.02,11.34v4.67l-15.81-11.15c-2.76-1.95-3.43-5.76-1.49-8.53l12.61-17.98Z"/>
          </g>
        </g>
      </g>
    </g>
  </g>
</svg>